<?xml version="1.0" standalone="no"?><!DOCTYPE svg PUBLIC "-//W3C//DTD SVG 1.1//EN" "http://www.w3.org/Graphics/SVG/1.1/DTD/svg11.dtd"><svg t="1692107622243" class="icon" viewBox="0 0 1024 1024" version="1.1" xmlns="http://www.w3.org/2000/svg" p-id="1630" xmlns:xlink="http://www.w3.org/1999/xlink" width="200" height="200"><path d="M810.666667 170.666667m0 42.666666l0 0q0 42.666667-42.666667 42.666667l-256 0q-42.666667 0-42.666667-42.666667l0 0q0-42.666667 42.666667-42.666666l256 0q42.666667 0 42.666667 42.666666Z" fill="#ffffff" p-id="1631"></path><path d="M981.333333 341.333333m0 42.666667l0 0q0 42.666667-42.666666 42.666667l-426.666667 0q-42.666667 0-42.666667-42.666667l0 0q0-42.666667 42.666667-42.666667l426.666667 0q42.666667 0 42.666666 42.666667Z" fill="#ffffff" p-id="1632"></path><path d="M128 213.333333l0 170.666667 170.666667 0 0-170.666667-170.666667 0m0-85.333333l170.666667 0a85.333333 85.333333 0 0 1 85.333333 85.333333l0 170.666667a85.333333 85.333333 0 0 1-85.333333 85.333333l-170.666667 0a85.333333 85.333333 0 0 1-85.333333-85.333333l0-170.666667a85.333333 85.333333 0 0 1 85.333333-85.333333z" fill="#ffffff" p-id="1633"></path><path d="M810.666667 597.333333m0 42.666667l0 0q0 42.666667-42.666667 42.666667l-256 0q-42.666667 0-42.666667-42.666667l0 0q0-42.666667 42.666667-42.666667l256 0q42.666667 0 42.666667 42.666667Z" fill="#ffffff" p-id="1634"></path><path d="M981.333333 768m0 42.666667l0 0q0 42.666667-42.666666 42.666666l-426.666667 0q-42.666667 0-42.666667-42.666666l0 0q0-42.666667 42.666667-42.666667l426.666667 0q42.666667 0 42.666666 42.666667Z" fill="#ffffff" p-id="1635"></path><path d="M128 640l0 170.666667 170.666667 0 0-170.666667-170.666667 0m0-85.333333l170.666667 0a85.333333 85.333333 0 0 1 85.333333 85.333333l0 170.666667a85.333333 85.333333 0 0 1-85.333333 85.333333l-170.666667 0a85.333333 85.333333 0 0 1-85.333333-85.333333l0-170.666667a85.333333 85.333333 0 0 1 85.333333-85.333333z" fill="#ffffff" p-id="1636"></path></svg>